HIERARCHY
ROOT hip
{
  OFFSET 0 0 0
  CHANNELS 6 Xposition Yposition Zposition Zrotation Yrotation Xrotation
  JOINT abdomen
  {
    OFFSET 0 20.6881 -0.73152
    CHANNELS 3 Zrotation Xrotation Yrotation
    JOINT chest
    {
      OFFSET 0 11.7043 -0.48768
      CHANNELS 3 Zrotation Xrotation Yrotation
      JOINT neck
      {
        OFFSET 0 22.1894 -2.19456
        CHANNELS 3 Zrotation Xrotation Yrotation
        JOINT head
        {
          OFFSET -0.24384 7.07133 1.2192
          CHANNELS 3 Zrotation Xrotation Yrotation
          JOINT leftEye
          {
            OFFSET 4.14528 8.04674 8.04672
            CHANNELS 3 Zrotation Xrotation Yrotation
            End Site
            {
              OFFSET 1 0 0
            }
          }
          JOINT rightEye
          {
            OFFSET -3.6576 8.04674 8.04672
            CHANNELS 3 Zrotation Xrotation Yrotation
            End Site
            {
              OFFSET 1 0 0
            }
          }
        }
      }
      JOINT rCollar
      {
        OFFSET -2.68224 19.2634 -4.8768
        CHANNELS 3 Zrotation Xrotation Yrotation
        JOINT rShldr
        {
          OFFSET -8.77824 -1.95073 1.46304
          CHANNELS 3 Zrotation Xrotation Yrotation
          JOINT rForeArm
          {
            OFFSET -28.1742 -1.7115 0.48768
            CHANNELS 3 Zrotation Xrotation Yrotation
            JOINT rHand
            {
              OFFSET -22.5879 0.773209 7.07136
              CHANNELS 3 Zrotation Xrotation Yrotation
              JOINT rThumb1
              {
                OFFSET -1.2192 -0.487915 3.41376
                CHANNELS 3 Zrotation Xrotation Yrotation
                JOINT rThumb2
                {
                  OFFSET -3.37035 -0.52449 3.41376
                  CHANNELS 3 Zrotation Xrotation Yrotation
                  End Site
                  {
                    OFFSET -1.78271 -1.18214 1.43049
                  }
                }
              }
              JOINT rIndex1
              {
                OFFSET -7.75947 0.938293 5.60832
                CHANNELS 3 Zrotation Xrotation Yrotation
                JOINT rIndex2
                {
                  OFFSET -2.54057 -0.884171 1.56538
                  CHANNELS 3 Zrotation Xrotation Yrotation
                  End Site
                  {
                    OFFSET -1.62519 -0.234802 1.16502
                  }
                }
              }
              JOINT rMid1
              {
                OFFSET -8.24714 1.18213 3.41376
                CHANNELS 3 Zrotation Xrotation Yrotation
                JOINT rMid2
                {
                  OFFSET -3.10165 -0.590103 1.0647
                  CHANNELS 3 Zrotation Xrotation Yrotation
                  End Site
                  {
                    OFFSET -2.48547 -0.328903 0.83742
                  }
                }
              }
              JOINT rRing1
              {
                OFFSET -8.82822 0.546677 1.51678
                CHANNELS 3 Zrotation Xrotation Yrotation
                JOINT rRing2
                {
                  OFFSET -2.60934 -0.819778 -0.0198488
                  CHANNELS 3 Zrotation Xrotation Yrotation
                  End Site
                  {
                    OFFSET -2.33842 -0.294052 0.168128
                  }
                }
              }
              JOINT rPinky1
              {
                OFFSET -8.27202 -0.0477905 -0.4584
                CHANNELS 3 Zrotation Xrotation Yrotation
                JOINT rPinky2
                {
                  OFFSET -1.82734 -0.647385 -0.700984
                  CHANNELS 3 Zrotation Xrotation Yrotation
                  End Site
                  {
                    OFFSET -1.69225 -0.51767 -0.607171
                  }
                }
              }
            }
          }
        }
      }
      JOINT lCollar
      {
        OFFSET 2.68224 19.2634 -4.8768
        CHANNELS 3 Zrotation Xrotation Yrotation
        JOINT lShldr
        {
          OFFSET 8.77824 -1.95073 1.46304
          CHANNELS 3 Zrotation Xrotation Yrotation
          JOINT lForeArm
          {
            OFFSET 28.1742 -1.7115 0.48768
            CHANNELS 3 Zrotation Xrotation Yrotation
            JOINT lHand
            {
              OFFSET 22.5879 0.773209 7.07136
              CHANNELS 3 Zrotation Xrotation Yrotation
              JOINT lThumb1
              {
                OFFSET 1.2192 -0.487915 3.41376
                CHANNELS 3 Zrotation Xrotation Yrotation
                JOINT lThumb2
                {
                  OFFSET 3.37035 -0.52449 3.41376
                  CHANNELS 3 Zrotation Xrotation Yrotation
                  End Site
                  {
                    OFFSET 1.78271 -1.18214 1.43049
                  }
                }
              }
              JOINT lIndex1
              {
                OFFSET 7.75947 0.938293 5.60832
                CHANNELS 3 Zrotation Xrotation Yrotation
                JOINT lIndex2
                {
                  OFFSET 2.54057 -0.884171 1.56538
                  CHANNELS 3 Zrotation Xrotation Yrotation
                  End Site
                  {
                    OFFSET 1.62519 -0.234802 1.16502
                  }
                }
              }
              JOINT lMid1
              {
                OFFSET 8.24714 1.18213 3.41376
                CHANNELS 3 Zrotation Xrotation Yrotation
                JOINT lMid2
                {
                  OFFSET 3.10165 -0.590103 1.0647
                  CHANNELS 3 Zrotation Xrotation Yrotation
                  End Site
                  {
                    OFFSET 2.48547 -0.328903 0.83742
                  }
                }
              }
              JOINT lRing1
              {
                OFFSET 8.82822 0.546677 1.51678
                CHANNELS 3 Zrotation Xrotation Yrotation
                JOINT lRing2
                {
                  OFFSET 2.60934 -0.819778 -0.0198488
                  CHANNELS 3 Zrotation Xrotation Yrotation
                  End Site
                  {
                    OFFSET 2.33842 -0.294052 0.168128
                  }
                }
              }
              JOINT lPinky1
              {
                OFFSET 8.27202 -0.0477905 -0.4584
                CHANNELS 3 Zrotation Xrotation Yrotation
                JOINT lPinky2
                {
                  OFFSET 1.82734 -0.647385 -0.700984
                  CHANNELS 3 Zrotation Xrotation Yrotation
                  End Site
                  {
                    OFFSET 1.69225 -0.51767 -0.607171
                  }
                }
              }
            }
          }
        }
      }
    }
  }
  JOINT rButtock
  {
    OFFSET -8.77824 4.35084 1.2192
    CHANNELS 3 Zrotation Xrotation Yrotation
    JOINT rThigh
    {
      OFFSET 0 -1.70687 -2.19456
      CHANNELS 3 Zrotation Xrotation Yrotation
      JOINT rShin
      {
        OFFSET 0 -36.8199 0.73152
        CHANNELS 3 Zrotation Xrotation Yrotation
        JOINT rFoot
        {
          OFFSET 0.73152 -45.1104 -5.12064
          CHANNELS 3 Zrotation Xrotation Yrotation
          End Site
          {
            OFFSET -1.1221 -3.69964 12.103
          }
        }
      }
    }
  }
  JOINT lButtock
  {
    OFFSET 8.77824 4.35084 1.2192
    CHANNELS 3 Zrotation Xrotation Yrotation
    JOINT lThigh
    {
      OFFSET 0 -1.70687 -2.19456
      CHANNELS 3 Zrotation Xrotation Yrotation
      JOINT lShin
      {
        OFFSET 0 -36.8199 0.73152
        CHANNELS 3 Zrotation Xrotation Yrotation
        JOINT lFoot
        {
          OFFSET -0.73152 -45.1104 -5.12064
          CHANNELS 3 Zrotation Xrotation Yrotation
          End Site
          {
            OFFSET 1.1221 -3.69964 12.103
          }
        }
      }
    }
  }
}
MOTION
Frames:	4
Frame Time:	0.00833333
22.6381 79.2324 30.9936 18.4875 -47.2819 -6.6734 -3.71524 13.6996 -5.16745 4.44703 -4.64367 -1.12839 -11.2509 -0.471391 -1.95507 9.25719 -8.85306 0.0346752 -0.0 0.0 0.0 -0.0 0.0 0.0 8.30308e-14 4.87406e-13 7.05496e-13 93.6234 32.8781 -23.6697 -26.6227 -44.942 93.3613 -0.0489873 -6.3222 -0.892125 -2.0859e-09 -1.9228e-09 -1.35628e-09 -3.60217e-09 -3.33762e-09 -2.35478e-09 -2.0859e-09 -1.9228e-09 -1.3563e-09 7.73091 5.47488 0.417314 -2.08591e-09 -1.9228e-09 -1.35628e-09 2.90554 0.965183 0.102902 -2.0859e-09 -1.9228e-09 -1.35629e-09 10.2786 0.731801 0.0259123 -2.0859e-09 -1.92279e-09 -1.35628e-09 2.22167 -0.733487 -0.20892 8.30414e-14 4.87406e-13 7.05338e-13 -89.4878 46.6557 14.4103 28.1816 -39.2564 -82.634 1.44992 -32.0326 5.04518 -1.862e-09 -9.06865e-10 -1.11253e-09 -3.1952e-09 -1.60735e-09 -1.96056e-09 -1.86201e-09 -9.06866e-10 -1.11252e-09 -7.73091 5.47488 -0.417314 -1.862e-09 -9.06866e-10 -1.11253e-09 -2.90554 0.965183 -0.102902 -1.86201e-09 -9.06866e-10 -1.11253e-09 -10.2786 0.731801 -0.0259123 -1.862e-09 -9.06862e-10 -1.11254e-09 -2.22167 -0.733487 0.20892 -2.03217e-16 0.0 -3.88251e-19 15.1302 -30.3835 -4.48994 -0.460555 42.2137 -0.0665369 -0.821903 -8.37128 -1.9128 2.03217e-16 0.0 3.88251e-19 10.5663 -19.821 10.7348 5.73346 80.7659 -5.93168 -0.504278 14.9913 7.03479
21.0867 78.632 33.4374 16.3289 -48.3911 -5.1707 -2.14364 13.7209 -4.87361 4.74369 -5.03177 -0.962614 -11.2344 -0.474076 -1.92626 9.17805 -8.75344 0.0718053 -0.0 0.0 0.0 -0.0 0.0 0.0 9.31067e-15 2.46399e-13 6.99495e-13 92.5832 33.8121 -22.181 -26.6968 -44.7603 93.0003 -0.0403868 -5.71286 -0.805528 -1.87281e-09 -3.0029e-09 -1.95463e-09 -3.23292e-09 -5.20421e-09 -3.38734e-09 -1.8728e-09 -3.0029e-09 -1.95465e-09 7.73091 5.47488 0.417314 -1.87281e-09 -3.00291e-09 -1.95463e-09 2.90554 0.965183 0.102902 -1.8728e-09 -3.0029e-09 -1.95463e-09 10.2786 0.731801 0.0259123 -1.87281e-09 -3.0029e-09 -1.95462e-09 2.22167 -0.733487 -0.20892 9.34456e-15 2.46413e-13 6.99315e-13 -91.7551 45.641 16.5862 28.2199 -38.9795 -82.1408 1.38133 -31.3648 4.91492 -1.35506e-09 1.35127e-10 -2.76534e-10 -2.34047e-09 2.04524e-10 -5.02028e-10 -1.35507e-09 1.35125e-10 -2.76529e-10 -7.73091 5.47488 -0.417314 -1.35506e-09 1.35126e-10 -2.76529e-10 -2.90554 0.965183 -0.102902 -1.35507e-09 1.35126e-10 -2.76533e-10 -10.2786 0.731801 -0.0259123 -1.35506e-09 1.3513e-10 -2.76542e-10 -2.22167 -0.733487 0.20892 -2.03217e-16 0.0 -3.88251e-19 17.3897 -29.0833 -2.38671 -0.463939 43.3078 0.0770787 -1.53739 -10.697 -4.34841 2.03217e-16 0.0 3.88251e-19 14.6643 -23.5338 11.7358 8.68083 83.5644 -8.88836 -0.256062 13.6929 6.4184
19.9183 77.8664 35.3054 14.1079 -48.0144 -3.1376 -0.720229 13.6859 -4.53973 5.05755 -5.41512 -0.792815 -11.2331 -0.424113 -1.91953 9.14975 -8.77882 0.0749504 -0.0 0.0 0.0 -0.0 0.0 0.0 -7.77074e-14 -2.58718e-14 6.83358e-13 91.5237 34.8007 -20.721 -26.733 -44.6767 92.8257 -0.0307193 -4.94248 -0.696351 -1.75915e-09 -3.82214e-09 -2.41281e-09 -3.03587e-09 -6.61927e-09 -4.17756e-09 -1.75914e-09 -3.82215e-09 -2.41283e-09 7.73091 5.47488 0.417314 -1.75915e-09 -3.82216e-09 -2.41282e-09 2.90554 0.965183 0.102902 -1.75914e-09 -3.82215e-09 -2.41281e-09 10.2786 0.731801 0.0259123 -1.75915e-09 -3.82215e-09 -2.41281e-09 2.22167 -0.733487 -0.20892 -7.76644e-14 -2.58458e-14 6.83146e-13 -93.8813 44.6172 18.7112 28.2483 -38.7923 -81.7913 1.32094 -30.7629 4.79881 -9.52065e-10 1.00328e-09 4.01942e-10 -1.66113e-09 1.7137e-09 6.81501e-10 -9.52067e-10 1.00328e-09 4.01943e-10 -7.73091 5.47488 -0.417314 -9.52063e-10 1.00328e-09 4.01948e-10 -2.90554 0.965183 -0.102902 -9.52066e-10 1.00328e-09 4.01943e-10 -10.2786 0.731801 -0.0259123 -9.52062e-10 1.00329e-09 4.01936e-10 -2.22167 -0.733487 0.20892 -2.03217e-16 0.0 -3.88251e-19 19.3873 -27.7067 -0.477763 -0.465212 44.2104 0.235356 -2.2977 -12.5443 -6.46917 2.03217e-16 0.0 3.88251e-19 18.5749 -27.2907 12.6869 14.2965 85.8892 -14.5236 -0.0246416 12.3617 5.68864
18.6905 77.3332 37.5642 12.6791 -47.752 -1.5946 0.335429 13.635 -4.17151 5.24637 -5.67583 -0.641092 -11.2146 -0.371875 -1.99444 9.15878 -8.92363 -0.074555 -0.0 0.0 0.0 -0.0 0.0 0.0 -1.2046e-13 -1.80512e-13 6.01324e-13 90.6592 35.5961 -19.2616 -26.7131 -44.7425 92.9352 -0.0206196 -4.09588 -0.57663 -1.62351e-09 -3.9003e-09 -2.43111e-09 -2.8015e-09 -6.75253e-09 -4.20745e-09 -1.6235e-09 -3.90031e-09 -2.43113e-09 7.73091 5.47488 0.417314 -1.62351e-09 -3.90032e-09 -2.43112e-09 2.90554 0.965183 0.102902 -1.6235e-09 -3.90031e-09 -2.43111e-09 10.2786 0.731801 0.0259123 -1.62351e-09 -3.90031e-09 -2.4311e-09 2.22167 -0.733487 -0.20892 -1.20425e-13 -1.8048e-13 6.01075e-13 -95.6589 43.8088 20.6314 28.2638 -38.6768 -81.5819 1.26584 -30.1918 4.69031 -7.10682e-10 1.28361e-09 6.39858e-10 -1.25036e-09 2.20401e-09 1.09878e-09 -7.10683e-10 1.28361e-09 6.39858e-10 -7.73091 5.47488 -0.417314 -7.10679e-10 1.28361e-09 6.39864e-10 -2.90554 0.965183 -0.102902 -7.10683e-10 1.28361e-09 6.39858e-10 -10.2786 0.731801 -0.0259123 -7.1068e-10 1.28361e-09 6.39851e-10 -2.22167 -0.733487 0.20892 -2.03217e-16 0.0 -3.88251e-19 20.6227 -26.0864 0.896727 -0.463417 44.8533 0.389222 -3.02344 -14.2542 -8.11549 2.03217e-16 0.0 3.88251e-19 21.6714 -30.7479 13.4498 24.3119 87.4601 -24.5616 0.159485 11.0256 5.37248
